<svg xmlns="http://www.w3.org/2000/svg" width="48" height="48" viewBox="0 0 48 48">
  <g fill="none">
    <path fill="#131415" d="M40.4351045,7.66527823 C39.2305117,6.86221637 37.8251535,6.86221637 36.6205607,7.2637473 C35.014437,7.86604369 33.4083132,8.86987101 32.2037205,10.0744638 L27.9876457,14.2905386 L10.9225812,10.2752293 C10.7218157,10.2752293 10.3202848,10.2752293 10.1195193,10.4759947 L6.90727191,13.6882422 C6.50574098,14.0897731 6.50574098,14.491304 6.90727191,14.892835 L7.10803738,15.0936004 L20.1577926,22.3211571 L13.5325322,28.9464175 L8.51339563,27.5410592 L8.31263017,27.5410592 C8.1118647,27.5410592 7.91109924,27.5410592 7.71033377,27.7418247 L5.3011482,30.1510103 C4.89961727,30.5525412 4.89961727,30.9540721 5.3011482,31.3556031 L11.7256431,36.1739742 L16.5440142,42.5984691 C16.7447797,42.7992345 16.9455451,43 17.1463106,43 C17.3470761,43 17.5478415,43 17.748607,42.7992345 L20.1577926,40.390049 C20.358558,40.1892835 20.358558,39.7877526 20.358558,39.5869871 L18.9531998,34.5678505 L25.5784601,27.9425902 L33.2075478,41.1931108 C33.4083132,41.3938763 33.6090787,41.5946417 33.8098442,41.5946417 L34.0106096,41.5946417 C34.2113751,41.5946417 34.4121406,41.5946417 34.4121406,41.3938763 L37.624388,38.9846907 C37.8251535,38.7839252 38.0259189,38.3823943 38.0259189,38.1816288 L33.8098442,20.3135025 L38.0259189,16.0974277 C39.2305117,14.892835 40.234339,13.2867112 40.8366354,11.6805875 C41.4389318,10.2752293 41.2381664,8.86987101 40.4351045,7.66527823 Z"/>
    <path fill="#E90511" d="M24,0 C10.74525,0 0,10.74525 0,24 C0,37.25475 10.74525,48 24,48 C37.25475,48 48,37.25475 48,24 C48,10.74525 37.25475,0 24,0 Z M24.0815362,43.3972603 C13.3239963,43.3972603 4.60273973,34.6760037 4.60273973,23.9184638 C4.60273973,19.3499368 6.1872649,15.1575004 8.82064836,11.8356164 L36.1643836,39.1793516 C32.8417504,41.8134843 28.6500632,43.3972603 24.0815362,43.3972603 Z M39.1792515,36.1643836 L11.8356164,8.82064836 C15.1575793,6.1872649 19.349366,4.60273973 23.9180014,4.60273973 C34.6757967,4.60273973 43.3972603,13.3239963 43.3972603,24.0815362 C43.3972603,28.6500632 41.8141959,32.8417504 39.1792515,36.1643836 Z"/>
  </g>
</svg>
