<svg xmlns="http://www.w3.org/2000/svg" width="48" height="48" viewBox="0 0 48 48">
  <g fill="none">
    <path fill="#000" d="M31.9964773,14.9983854 C32.8278292,14.9983854 33.4971378,14.3267283 33.4971378,13.4977249 L33.4971378,9.5006605 C33.4971378,8.67165713 32.8278292,8 31.9964773,8 C31.1651255,8 30.4958168,8.67165713 30.4958168,9.5006605 L30.4958168,13.5000734 C30.4981653,14.3267283 31.1674739,14.9983854 31.9964773,14.9983854 Z M15.9988258,14.9983854 C16.8278292,14.9983854 17.4994863,14.3267283 17.4994863,13.4977249 L17.4994863,9.5006605 C17.4994863,8.67165713 16.8278292,8 15.9988258,8 C15.1698224,8 14.5005137,8.67165713 14.5005137,9.5006605 L14.5005137,13.5000734 C14.5005137,14.3267283 15.1698224,14.9983854 15.9988258,14.9983854 Z M28.7321298,30.8997505 C28.5935711,31.0594452 28.4338764,31.18861 28.2366065,31.2895934 C28.0440335,31.3905768 27.823279,31.4398943 27.5813885,31.4398943 C27.1633642,31.4398943 26.8251871,31.3154264 26.5527668,31.068839 C26.2873918,30.8222516 26.1253486,30.486423 26.0854249,30.0730956 L24.2395421,30.0730956 C24.2465874,30.5498312 24.3452224,30.9678556 24.5330985,31.3248202 C24.7209746,31.6864817 24.9722589,31.9847351 25.2799061,32.228974 C25.5922501,32.473213 25.9492147,32.6516953 26.3531484,32.7691179 C26.757082,32.884192 27.1798033,32.9429033 27.6236606,32.9429033 C28.0816087,32.9476002 28.5137238,32.8747982 28.9223543,32.7174519 C29.3309849,32.5530603 29.6832526,32.327609 29.9955967,32.0340525 C30.3032438,31.7404961 30.5498312,31.3929253 30.7283135,30.9842947 C30.9067958,30.585058 30.9983854,30.1505945 30.9983854,29.6762073 C30.9983854,29.253486 30.9349772,28.8542492 30.8105093,28.478497 C30.6860414,28.1027448 30.5075591,27.77631 30.2656686,27.4968443 C30.0261265,27.2173785 29.7325701,26.9966241 29.3849993,26.8322325 C29.0421253,26.6678409 28.6475855,26.5879935 28.1919859,26.5879935 C27.8256275,26.5879935 27.5038896,26.637311 27.219727,26.7476882 C26.928519,26.8651108 26.663144,27.0435931 26.4095112,27.2901805 L26.3813298,27.266696 L26.7476882,25.2024072 L30.5052106,25.2024072 L30.5052106,23.6806106 L25.4208132,23.6806106 L24.5260531,28.7086452 L26.1887568,28.7086452 C26.3672391,28.4573609 26.564509,28.2765302 26.7711728,28.1591076 C26.9825334,28.0393366 27.2479084,27.9853222 27.5790401,27.9853222 C27.8303244,27.9853222 28.0510788,28.0275943 28.2436518,28.114487 C28.431528,28.2013797 28.5959196,28.3258476 28.7344782,28.4761485 C28.8777337,28.6311463 28.9787172,28.816674 29.0468223,29.0209893 C29.1196242,29.2323499 29.1525026,29.4531044 29.1525026,29.6809042 C29.1525026,29.9087039 29.1149273,30.1294584 29.0421253,30.340819 C28.9693234,30.5521797 28.863643,30.7400558 28.7321298,30.8997505 Z M21.1771613,27.8138852 C20.9916336,27.9829737 20.7873184,28.1450169 20.561867,28.2906209 C20.3364157,28.4291795 20.1227066,28.5700866 19.9254367,28.7086452 C19.5332453,28.9787172 19.1645384,29.2464406 18.8146191,29.5024218 C18.4623514,29.7631 18.1570527,30.0472626 17.8963746,30.3549097 C17.6356965,30.6625569 17.4313812,31.0101277 17.2787318,31.3999706 C17.1260825,31.7898136 17.050932,32.2477616 17.050932,32.7761632 L23.7322765,32.7761632 L23.7322765,31.1933069 L19.4299134,31.1933069 C19.6553647,30.8809629 19.9160429,30.606194 20.2095993,30.3713489 C20.5055042,30.1365037 20.8084544,29.9227947 21.1207985,29.7161309 C21.4331425,29.5141641 21.7431381,29.3075004 22.0507853,29.0961397 C22.3584324,28.889476 22.6332012,28.6546309 22.8774402,28.4033465 C23.1169822,28.1497138 23.3119037,27.8561573 23.4575077,27.5250257 C23.6078086,27.1985909 23.6806106,26.8040511 23.6806106,26.3414061 C23.6806106,25.8998973 23.5960663,25.5053574 23.4269778,25.1483928 C23.2578893,24.7937766 23.0300895,24.4931748 22.7459269,24.2512843 C22.4594158,24.0070454 22.1282842,23.8215177 21.7501835,23.6923529 C21.3720828,23.5608396 20.9775429,23.4974314 20.561867,23.4974314 C20.0146778,23.4974314 19.5332453,23.5913694 19.1128724,23.7768971 C18.6924996,23.9647732 18.3449288,24.2231029 18.0678115,24.5589315 C17.7859974,24.8924116 17.5793336,25.2775576 17.440775,25.7261118 C17.3022164,26.1723176 17.2411566,26.6537502 17.2599442,27.1774549 L19.0259797,27.1774549 C19.0259797,26.9332159 19.0518127,26.6866285 19.0964333,26.444738 C19.1457508,26.1958021 19.2279466,25.9703508 19.3406722,25.7636871 C19.4533979,25.5617202 19.6036988,25.3973286 19.786878,25.2728607 C19.9747541,25.1460443 20.2002055,25.0802877 20.4702774,25.0802877 C20.8671657,25.0802877 21.1959489,25.2024072 21.4495817,25.4536915 C21.7055629,25.7002789 21.8347277,26.0455012 21.8347277,26.4823132 C21.8347277,26.761779 21.7713195,27.0107148 21.6445032,27.2291208 C21.5200352,27.4428299 21.362689,27.6400998 21.1771613,27.8138852 Z M38.496991,11.9994129 L35.4980185,11.9994129 L35.4980185,13.5000734 C35.4980185,15.432849 33.9292529,17.0016146 31.9988258,17.0016146 C30.0683986,17.0016146 28.4996331,15.4351974 28.4996331,13.5000734 L28.4996331,11.9994129 L19.4980185,11.9994129 L19.4980185,13.5000734 C19.4980185,15.432849 17.9316014,17.0016146 15.9988258,17.0016146 C14.0660502,17.0016146 12.4996331,15.4351974 12.4996331,13.5000734 L12.4996331,11.9994129 L9.5006605,11.9994129 C8.67165713,11.9994129 8,12.6734185 8,13.5000734 L8,38.4993395 C8,39.3259944 8.67165713,40 9.5006605,40 L38.496991,40 C39.3283429,40 39.9976515,39.3259944 39.9976515,38.4993395 L39.9976515,13.4977249 C39.9953031,12.67107 39.3259944,11.9994129 38.496991,11.9994129 Z M36.9963305,36.9963305 L10.9989726,36.9963305 L10.9989726,19.9982387 L36.9963305,19.9982387 L36.9963305,36.9963305 Z"/>
    <path fill="#E90511" d="M24,0 C10.74525,0 0,10.74525 0,24 C0,37.25475 10.74525,48 24,48 C37.25475,48 48,37.25475 48,24 C48,10.74525 37.25475,0 24,0 Z M24.0815362,43.3972603 C13.3239963,43.3972603 4.60273973,34.6760037 4.60273973,23.9184638 C4.60273973,19.3499368 6.1872649,15.1575004 8.82064836,11.8356164 L36.1643836,39.1793516 C32.8417504,41.8134843 28.6500632,43.3972603 24.0815362,43.3972603 Z M39.1792515,36.1643836 L11.8356164,8.82064836 C15.1575793,6.1872649 19.349366,4.60273973 23.9180014,4.60273973 C34.6757967,4.60273973 43.3972603,13.3239963 43.3972603,24.0815362 C43.3972603,28.6500632 41.8141959,32.8417504 39.1792515,36.1643836 Z"/>
  </g>
</svg>
