<svg xmlns="http://www.w3.org/2000/svg" width="46" height="48" viewBox="0 0 46 48">
  <path fill="#F6AF00" d="M243.233414,302.521153 C245.042174,303.555353 246.432017,305.019379 247.697495,306.557589 C248.552783,307.598335 249.525891,307.801248 250.73464,307.537243 C252.665584,307.116145 254.565982,306.540134 256.516563,306.249947 C258.737694,305.922668 260.393724,307.895068 259.632256,309.841285 C259.130428,311.128581 257.919497,311.617317 256.616928,311.892231 C254.430707,312.359148 252.14412,312.562061 250.058264,313.27771 C247.141121,314.281365 244.952718,313.67699 243.167958,311.399131 C242.893044,311.043488 242.637767,310.672572 242.179577,310.046379 L242.179577,310.048561 L239.332253,317.503969 C241.605748,317.94034 243.748332,318.538169 245.81237,319.380366 C246.981845,319.856011 247.732404,320.567297 248.033501,321.824047 C249.037155,326.021941 250.165175,330.200198 251.219013,334.391546 C251.681566,336.235216 250.743368,337.380691 248.456781,337.851972 C246.222559,338.310162 245.194904,337.721061 244.67344,335.855573 C243.785424,332.670061 242.788315,329.515094 241.911208,326.329582 C241.721387,325.637934 241.228287,325.402293 240.682822,325.238654 C239.777582,324.966688 238.852609,324.765353 237.916227,324.636461 C235.071085,324.254636 235.060175,324.272091 233.853608,326.752863 C233.046321,328.41762 232.263034,330.093287 231.252834,331.662042 C230.100813,333.442438 229.180069,333.811172 227.052758,333.302799 C224.200525,332.623151 221.628933,331.35215 219.079266,330.035003 L217.98714,329.469275 L217.98714,329.469275 C217.459393,329.193526 216.919169,328.942344 216.368202,328.716535 C214.258345,327.863428 213.459785,326.026304 214.373984,324.101906 C215.13327,322.50915 217.195126,322.018232 219.147888,322.938976 C220.766827,323.702626 222.385765,324.481549 224.04834,325.155743 C225.577822,325.775391 225.887646,325.655388 226.437474,324.217544 C228.278962,319.44364 230.12045,314.669736 231.329199,309.70601 C231.405564,309.38964 231.444837,309.066725 231.444837,308.741628 C231.444837,308.113253 231.111013,307.971433 230.513184,308.215801 C229.961174,308.442714 229.673169,308.879086 229.363345,309.328548 L227.389026,312.192856 C226.399597,313.623928 225.401528,315.049815 224.371255,316.454495 C223.075232,318.219618 220.963194,318.335256 219.540623,316.80141 C218.661334,315.85012 218.659152,314.750464 219.265708,313.727173 C221.098469,310.639845 223.025049,307.609244 225.289817,304.770648 C227.011303,302.614972 229.378618,301.726956 232.042666,301.323313 C235.882736,300.736393 239.692259,300.496389 243.233414,302.521153 Z M241.274106,290 C244.286416,290 246.728458,292.441805 246.72875,295.454116 C246.728938,297.402998 245.68933,299.203921 244.00158,300.178416 C242.31383,301.152912 240.234382,301.152912 238.546631,300.178416 C236.858881,299.203921 235.819273,297.402998 235.819462,295.454116 C235.819754,292.441805 238.261795,290 241.274106,290 Z" transform="translate(-214 -290)"/>
</svg>
