<svg xmlns="http://www.w3.org/2000/svg" width="48" height="48" viewBox="0 0 48 48">
  <path fill="#F6AF00" d="M676,109 C689.254834,109 700,119.745166 700,133 C700,141.574374 695.425626,149.497423 688,153.78461 C680.574374,158.071797 671.425626,158.071797 664,153.78461 C656.574374,149.497423 652,141.574374 652,133 C652,119.745166 662.745166,109 676,109 Z M681.76,120.4144 C679.561642,120.43014 677.471245,121.369657 676,123.0032 C674.527327,121.371615 672.437841,120.432507 670.24,120.4144 C665.8048,120.4144 662.1984,124.2032 662.1984,128.8624 C662.203816,128.99966 662.217709,129.136454 662.24,129.272 L662.24,129.3872 C662.262328,130.314371 662.46107,131.228803 662.8256,132.0816 C662.8256,132.1168 662.8512,132.1488 662.864,132.1808 C665.3152,138.1328 674.7488,144.9808 675.1488,145.3008 C675.389983,145.489102 675.68762,145.590569 675.9936,145.588822 C676.302748,145.588273 676.602669,145.483413 676.8448,145.2912 C677.1872,145.0192 685.2352,139.1568 688.4288,133.608 C688.5504,133.4224 688.64,133.24 688.7232,133.0832 C688.7488,133.0352 688.7712,132.984 688.7968,132.936 L688.7968,132.9136 C688.806953,132.894491 688.818729,132.876291 688.832,132.8592 C689.010066,132.513555 689.165071,132.156509 689.296,131.7904 C689.604222,131.028941 689.772257,130.218037 689.792,129.3968 L689.792,129.2496 C689.792,129.1536 689.808,129.0224 689.808,128.8688 L689.8016,128.8624 C689.8016,124.2032 686.1888,120.4144 681.76,120.4144 Z" transform="translate(-652 -109)"/>
</svg>
