<svg xmlns="http://www.w3.org/2000/svg" width="55" height="48" viewBox="0 0 55 48">
  <path fill="#F6AF00" d="M133.42846,110.428772 C143.2989,110.428772 153.788958,118.438066 160.576194,128.302169 L160.856841,128.71423 C154.080468,138.766056 143.435989,147 133.42846,147 C123.420852,147 112.776373,138.766368 106,128.71423 C112.776373,118.66217 123.420852,110.428772 133.42846,110.428772 Z M133.42846,112.71423 C125.267579,112.71423 115.694594,119.13152 108.82818,128.65395 L108.785,128.714 L108.82818,128.774441 C115.694594,138.296933 125.267579,144.714152 133.42846,144.714152 C141.589041,144.714152 151.161942,138.296933 158.028418,128.774441 L158.071,128.714 L158.028427,128.65395 C151.162014,119.13152 141.589041,112.71423 133.42846,112.71423 Z M133.42846,117.28577 C139.74007,117.28577 144.85692,122.402308 144.85692,128.71423 C144.85692,134.927221 139.898722,139.982496 133.723426,140.138957 L133.42846,140.14269 C127.116537,140.14269 122,135.02584 122,128.71423 C122,122.402386 127.116537,117.28577 133.42846,117.28577 Z M158.96146,127.436424 C158.758141,127.738026 158.552079,128.036833 158.343395,128.332749 L158.071,128.714 L158.343402,129.095639 C158.447743,129.243596 158.551428,129.392276 158.654443,129.541666 L158.96146,129.991958 Z M107.895147,127.436424 L107.895147,129.991958 C108.098464,129.690358 108.304523,129.391553 108.513205,129.095639 L108.785,128.714 L108.513205,128.332749 C108.408864,128.184791 108.305179,128.03611 108.202164,127.886719 L107.895147,127.436424 Z M146.262225,101.109755 L148.372527,101.988345 L145.737384,108.318861 L143.627082,107.440271 L146.262225,101.109755 Z M120.594616,101.109677 L123.229838,107.440193 L121.119536,108.318783 L118.484392,101.988267 L120.594616,101.109677 Z M134.571345,99 L134.571345,105.856998 L132.285575,105.856998 L132.285575,99 L134.571345,99 Z" transform="translate(-106 -99)"/>
</svg>
