<svg xmlns="http://www.w3.org/2000/svg" width="39" height="48" viewBox="0 0 39 48">
  <path fill="#F6AF00" d="M567.447944,167.990343 C568.845117,167.990343 569.97775,169.122976 569.97775,170.520149 C569.97775,171.917322 568.845117,173.049955 567.447944,173.049955 L567.447944,173.049955 L557.884341,173.049955 C557.287494,173.049955 556.505128,173.342288 556.077872,174.455402 C555.576596,175.751225 555.822081,178.253859 556.131279,180.19244 L556.131279,180.19244 L556.536985,182.48332 C556.544923,182.492291 556.54867,182.504215 556.547292,182.516114 L556.547292,182.516114 L559.790128,200.956525 C559.967526,201.861167 559.643301,202.791167 558.941942,203.38945 C558.240583,203.987733 557.271101,204.161307 556.405732,203.843527 C555.540363,203.525748 554.913612,202.766008 554.766121,201.856011 L554.766121,201.856011 L552.525837,189.027084 C552.525837,189.027084 551.822176,185.982885 550.488875,185.982885 C549.177124,185.982885 548.458471,189.027084 548.458471,189.027084 L548.458471,189.027084 L546.218188,201.844768 C546.108986,202.51423 545.736085,203.112021 545.182851,203.504496 C544.629617,203.896972 543.942187,204.051403 543.274243,203.933263 C541.881771,203.682237 540.954098,202.352921 541.198866,200.959335 L541.198866,200.959335 L544.440765,182.518924 C544.449385,182.510322 544.453537,182.498213 544.452009,182.486131 L544.452009,182.486131 L544.856777,180.195251 C545.165976,178.25667 545.411461,175.754036 544.910184,174.458213 C544.481054,173.342288 543.72305,173.052766 543.075607,173.052766 L543.075607,173.052766 L533.529806,173.052766 C532.132633,173.052766 531,171.920133 531,170.52296 C531,169.125787 532.132633,167.993154 533.529806,167.993154 L533.529806,167.993154 L567.447944,167.993154 Z M550.488875,156 C553.386716,156 555.73588,158.349164 555.73588,161.247005 C555.73588,164.144846 553.386716,166.49401 550.488875,166.49401 C547.591034,166.49401 545.24187,164.144846 545.24187,161.247005 C545.24187,158.349164 547.591034,156 550.488875,156 Z" transform="translate(-531 -156)"/>
</svg>
