<svg width="32" height="32" viewBox="0 0 32 32" fill="none" xmlns="http://www.w3.org/2000/svg">
<circle cx="20" cy="12" r="12" fill="#F9EACB"/>
<g clip-path="url(#clip0)">
<path d="M15.5003 1C10.5145 1 6.45868 5.05583 6.45868 10.0417C6.45868 15.0275 10.5145 19.0833 15.5003 19.0833C20.4862 19.0833 24.542 15.0275 24.542 10.0417C24.542 5.05583 20.4862 1 15.5003 1ZM20.3919 9.72779L18.6339 11.5297L19.0511 14.0846C19.1106 14.4501 18.9568 14.8183 18.652 15.0327C18.4867 15.1489 18.2903 15.2083 18.0953 15.2083C17.9338 15.2083 17.7724 15.1683 17.6264 15.0869L15.5003 13.9128L13.3743 15.0882C13.0501 15.2678 12.6496 15.2471 12.3474 15.0327C12.0438 14.8183 11.8901 14.4501 11.9483 14.0846L12.3655 11.5297L10.6088 9.72779C10.3556 9.46817 10.2678 9.08713 10.3841 8.74354C10.499 8.39867 10.7961 8.14938 11.1565 8.09383L13.5473 7.72829L14.6246 5.433C14.9423 4.75229 16.0596 4.75229 16.3774 5.433L17.4546 7.72829L19.8455 8.09383C20.2046 8.14808 20.503 8.39867 20.6179 8.74354C20.7329 9.08713 20.6451 9.46817 20.3919 9.72779Z" fill="#F6AF00"/>
<path d="M7.69809 17.7659L2.69934 26.743C2.53142 27.053 2.54434 27.4405 2.73809 27.7375C2.93184 28.0346 3.26767 28.2155 3.62934 28.1767L7.60767 27.8796L9.36434 31.4575C9.53226 31.7805 9.85517 31.9871 10.2039 32H10.2298C10.5785 32 10.9143 31.8063 11.0823 31.5092L14.3373 25.7225L11.1727 20.1296C9.86809 19.5742 8.69267 18.7605 7.69809 17.7659Z" fill="#F6AF00"/>
<path d="M28.2879 26.7429L23.2504 17.8175C21.6099 19.4579 19.4529 20.5688 17.0504 20.9046C16.5466 20.9821 16.0299 21.0208 15.5004 21.0208C14.932 21.0208 14.3766 20.9821 13.8341 20.8917L15.4487 23.7463L19.8274 31.5092C19.9954 31.8063 20.3183 32 20.667 32H20.6929C21.0545 31.9871 21.3774 31.7804 21.5454 31.4575L23.3149 27.8796L27.3708 28.1896C27.7324 28.2154 28.0683 28.0475 28.262 27.7375C28.4558 27.4404 28.4687 27.0529 28.2879 26.7429Z" fill="#F6AF00"/>
</g>
<defs>
<clipPath id="clip0">
<rect width="31" height="31" fill="white" transform="translate(0 1)"/>
</clipPath>
</defs>
</svg>
