<svg xmlns="http://www.w3.org/2000/svg" width="48" height="48" viewBox="0 0 48 48">
  <g fill="none">
    <path fill="#131415" d="M5.59175342,6.57534247 L42.7370137,6.57534247 C44.451074,6.57534247 45.8634247,7.91268493 46.0142795,9.61158904 L46.0273973,9.91652055 L46.0273973,17.4657534 L30.7232877,17.4657534 C27.173402,17.4623451 24.2650592,20.2732297 24.1608872,23.8082485 C24.0567152,27.3432673 26.7945262,30.3192873 30.3384986,30.5233562 L30.7232877,30.5342466 L46.0273973,30.5342466 L46.0273973,38.0856575 C46.0273973,39.8237671 44.7112438,41.2569452 43.036537,41.411589 L42.7370137,41.4246575 L5.59175342,41.4246575 C3.87769315,41.4246575 2.46534247,40.0873151 2.31448767,38.388411 L2.30136986,38.0834795 L2.30136986,9.91652055 C2.30136986,8.17841096 3.61752329,6.74523288 5.29223014,6.59058904 L5.59175342,6.57534247 L42.7370137,6.57534247 L5.59175342,6.57534247 Z M31.5616438,20.7123288 C32.7362156,20.7123288 33.8215647,21.3389553 34.4088506,22.3561644 C34.9961365,23.3733734 34.9961365,24.6266266 34.4088506,25.6438356 C33.8215647,26.6610447 32.7362156,27.2876712 31.5616438,27.2876712 C29.7459131,27.2876712 28.2739726,25.8157307 28.2739726,24 C28.2739726,22.1842693 29.7459131,20.7123288 31.5616438,20.7123288 L31.5616438,20.7123288 Z"/>
    <path fill="#E90511" d="M24,0 C10.74525,0 0,10.74525 0,24 C0,37.25475 10.74525,48 24,48 C37.25475,48 48,37.25475 48,24 C48,10.74525 37.25475,0 24,0 Z M24.0815362,43.3972603 C13.3239963,43.3972603 4.60273973,34.6760037 4.60273973,23.9184638 C4.60273973,19.3499368 6.1872649,15.1575004 8.82064836,11.8356164 L36.1643836,39.1793516 C32.8417504,41.8134843 28.6500632,43.3972603 24.0815362,43.3972603 Z M39.1792515,36.1643836 L11.8356164,8.82064836 C15.1575793,6.1872649 19.349366,4.60273973 23.9180014,4.60273973 C34.6757967,4.60273973 43.3972603,13.3239963 43.3972603,24.0815362 C43.3972603,28.6500632 41.8141959,32.8417504 39.1792515,36.1643836 Z"/>
  </g>
</svg>
