<svg xmlns="http://www.w3.org/2000/svg" width="35" height="48" viewBox="0 0 35 48">
  <path fill="#F6AF00" d="M151.862454,265.042437 C152.205793,265.048425 152.481263,265.329883 152.475274,265.673222 C152.475274,268.926955 154.164022,271.3962 156.427662,273.691779 L156.858832,274.118956 L157.078409,274.332545 L157.525548,274.75573 L157.984663,275.178915 L158.683318,275.8097 L160.318169,277.256913 L160.996862,277.863744 L161.447993,278.272956 L161.903117,278.696141 L162.128682,278.909729 L162.575821,279.338903 L163.012979,279.778057 L163.228564,279.997634 L163.651749,280.444773 C165.943336,282.925994 167.689972,285.778501 167.777802,289.587165 L167.781795,289.930504 C167.8459,295.650035 164.831306,300.962746 159.888455,303.841177 C154.945603,306.719608 148.837194,306.719608 143.894342,303.841177 C138.951491,300.962746 135.936897,295.650035 136.001002,289.930504 C136.001002,286.215659 137.931285,281.882005 140.452429,277.883705 L140.863637,277.236951 L141.07523,276.917566 L141.500411,276.282789 L141.715996,275.9654 L142.15515,275.342599 L142.374727,275.035191 L142.817874,274.42836 L143.265012,273.829513 L143.714147,273.24464 L144.165279,272.671743 L144.614414,272.11282 L145.061552,271.567869 L145.285122,271.300384 L145.728268,270.779388 L146.165426,270.27436 L146.596596,269.787298 L147.021777,269.318202 L147.436978,268.867071 L147.842197,268.437897 L148.23544,268.030682 L148.614709,267.643427 L148.983998,267.280127 L149.335321,266.940781 L149.83436,266.479669 L150.141768,266.202203 L150.289484,266.074449 L150.568946,265.840899 L150.824453,265.633299 L150.944223,265.541476 L151.167792,265.379787 L151.2676,265.309922 L151.455239,265.194145 C151.560664,265.125681 151.67667,265.075097 151.798577,265.044433 L151.862454,265.040441 L151.862454,265.042437 Z M162.438086,288.796688 C162.210968,288.797217 161.993362,288.887946 161.833139,289.048918 C161.672916,289.209889 161.583202,289.427916 161.583732,289.655035 C161.583202,292.150689 160.5913,294.543918 158.826231,296.308238 C157.061163,298.072558 154.667513,299.063445 152.171858,299.062916 C151.698909,299.062916 151.315508,299.446317 151.315508,299.919266 C151.315508,300.392216 151.698909,300.775617 152.171858,300.775617 C155.121912,300.776147 157.951291,299.604477 160.037294,297.518474 C162.123297,295.432471 163.294967,292.603092 163.294437,289.653038 C163.293337,289.180869 162.910257,288.798683 162.438086,288.798684 L162.438086,288.796688 Z M164.550019,258 C164.878746,258.00739 165.143472,258.272116 165.150862,258.600843 C165.150862,259.704717 165.761685,260.533121 166.602067,261.349549 L166.907479,261.636995 L167.226864,261.928434 L167.869626,262.495342 L168.177034,262.774804 L168.484442,263.060254 L168.783865,263.359678 C169.722058,264.317832 170.510539,265.449652 170.588389,266.9827 L170.594378,267.228227 C170.634043,269.407751 169.493983,271.438906 167.612793,272.540279 C165.731603,273.641653 163.40237,273.641653 161.52118,272.540279 C159.63999,271.438906 158.49993,269.407751 158.539595,267.228227 C158.539595,265.463626 159.691376,263.299793 160.998858,261.511238 L161.290297,261.119991 C161.390105,260.992237 161.48592,260.866479 161.585728,260.742718 L161.881159,260.38341 L162.172598,260.040071 L162.46204,259.716694 L162.741502,259.41727 L163.014975,259.137809 L163.274476,258.888289 L163.518007,258.662724 C163.993092,258.243531 164.366373,258 164.550019,258 L164.550019,258 Z" transform="translate(-136 -258)"/>
</svg>
