<svg width="38" height="32" viewBox="0 0 38 32" fill="none" xmlns="http://www.w3.org/2000/svg">
<circle cx="26" cy="16" r="12" fill="#FF898E" fill-opacity="0.3"/>
<path d="M5.625 15.875C7.67578 15.875 9.375 14.2344 9.375 12.125C9.375 10.0742 7.67578 8.375 5.625 8.375C3.51562 8.375 1.875 10.0742 1.875 12.125C1.875 14.2344 3.51562 15.875 5.625 15.875ZM31.875 15.875C33.9258 15.875 35.625 14.2344 35.625 12.125C35.625 10.0742 33.9258 8.375 31.875 8.375C29.7656 8.375 28.125 10.0742 28.125 12.125C28.125 14.2344 29.7656 15.875 31.875 15.875ZM33.75 17.75H30C28.9453 17.75 28.0078 18.2188 27.3047 18.8633C29.707 20.1523 31.3477 22.4961 31.7578 25.25H35.625C36.6211 25.25 37.5 24.4297 37.5 23.375V21.5C37.5 19.4492 35.8008 17.75 33.75 17.75ZM18.75 17.75C22.3242 17.75 25.3125 14.8203 25.3125 11.1875C25.3125 7.61328 22.3242 4.625 18.75 4.625C15.1172 4.625 12.1875 7.61328 12.1875 11.1875C12.1875 14.8203 15.1172 17.75 18.75 17.75ZM23.2031 19.625H22.7344C21.5039 20.2109 20.1562 20.5625 18.75 20.5625C17.2852 20.5625 15.9375 20.2109 14.707 19.625H14.2383C10.4883 19.625 7.5 22.6719 7.5 26.4219V28.0625C7.5 29.6445 8.73047 30.875 10.3125 30.875H27.1875C28.7109 30.875 30 29.6445 30 28.0625V26.4219C30 22.6719 26.9531 19.625 23.2031 19.625ZM10.1367 18.8633C9.43359 18.2188 8.49609 17.75 7.5 17.75H3.75C1.64062 17.75 0 19.4492 0 21.5V23.375C0 24.4297 0.820312 25.25 1.875 25.25H5.68359C6.09375 22.4961 7.73438 20.1523 10.1367 18.8633Z" fill="#FF898E"/>
</svg>
