<svg xmlns="http://www.w3.org/2000/svg" width="39" height="48" viewBox="0 0 39 48">
  <path fill="#F6AF00" d="M401.49238,135.727157 L401.719377,139.646463 C399.041047,141.951551 397.324776,145.339853 397.324776,149.139878 C397.324776,156.074149 402.939286,161.679062 409.862088,161.679062 C415.888321,161.679062 420.883256,157.396064 422.0762,151.727813 L422.0762,151.727813 L424.311911,155.591317 C421.830009,161.119175 416.315446,165 409.862135,165 C401.096058,165 394,157.896405 394,149.139878 C394,143.454259 397.005369,138.528607 401.49238,135.727157 L401.49238,135.727157 Z M407.218446,126.20865 C409.461881,126.087497 411.362876,127.832557 411.516799,130.047202 L411.516799,130.047202 L411.79384,133.119936 L419.68638,133.119936 C420.752273,133.160336 421.591261,133.97999 421.591261,135.038252 C421.591261,136.108031 420.729334,136.906525 419.68638,136.966259 L419.68638,136.966259 L412.01316,136.966259 L412.120971,140.706597 L422.676535,140.706597 C423.488418,140.729676 424.273478,141.154882 424.719843,141.90338 L424.719843,141.90338 L431.912102,154.329136 C432.570063,155.548997 432.227624,156.999696 431.069369,157.702036 C429.903249,158.402457 428.352557,157.954126 427.682986,156.857383 L427.682986,156.857383 L422.091508,147.175357 L408.39978,147.175357 C406.175632,147.175357 404.293876,145.584172 404.109151,143.334932 L404.109151,143.334932 L403.370296,130.520532 C403.258647,128.27705 404.959562,126.333735 407.218446,126.20865 Z M407.149115,117 C409.48496,117 411.366715,118.879836 411.366715,121.219519 C411.366715,123.524561 409.488798,125.440958 407.149115,125.440958 C404.820995,125.440958 402.927676,123.5284 402.927676,121.219519 C402.927676,118.879836 404.820995,117 407.149115,117 Z" transform="translate(-394 -117)"/>
</svg>
