<svg xmlns="http://www.w3.org/2000/svg" width="67" height="48" viewBox="0 0 67 48">
  <path fill="#F6AF00" fill-rule="evenodd" d="M339.773935,326.715995 L343.680217,326.731336 L343.680217,337.983044 L331.332883,338 C331.542781,337.830437 331.743816,337.648359 331.92511,337.444076 L331.92511,337.444076 L338.42551,330.115327 C339.261477,329.173445 339.733244,327.971971 339.773935,326.715995 L339.773935,326.715995 Z M362.469936,312.138029 C363.807081,311.531075 365.372253,312.085949 366.029746,313.402484 C366.697714,314.738397 366.160681,316.378716 364.832399,317.058178 L364.832399,317.058178 L354.727069,322.227827 C354.595731,322.294845 354.496221,322.41152 354.449487,322.551611 L354.449487,322.551611 L351.84973,330.367249 L350.799836,330.370075 C350.489219,330.370882 350.237422,330.624015 350.238631,330.935688 C350.239436,331.246957 350.491234,331.498475 350.801448,331.498475 L350.801448,331.498475 L350.803059,331.498475 L369.747886,331.447606 L369.747886,331.447606 L369.757152,331.447606 C370.624543,331.447606 371.439964,331.786732 372.05314,332.402407 C372.668332,333.020504 373.004733,333.842076 372.99995,334.715325 C372.989826,336.495331 371.53746,337.945094 369.761584,337.947113 L369.761584,337.947113 L344.806255,337.981429 L344.806255,326.409167 L349.471555,319.774414 C349.48485,319.755439 349.496936,319.73606 349.507411,319.715874 C350.282544,318.268938 351.531056,317.099358 353.02371,316.421914 L353.02371,316.421914 Z M325.255826,322.981978 L329.230436,326.498793 C329.239622,326.508482 329.250097,326.515749 329.259967,326.525035 L329.274954,326.538358 C329.283898,326.546028 329.295299,326.548047 329.304525,326.555314 C329.34864,326.588823 329.394125,326.618698 329.447062,326.637673 C329.489002,326.654225 329.531868,326.658666 329.575701,326.664722 C329.596207,326.666741 329.614054,326.676834 329.635125,326.676834 L329.635125,326.676834 L329.670578,326.676834 C329.676742,326.676834 329.682503,326.677641 329.688586,326.677238 L329.688586,326.677238 L332.220821,326.688542 L327.673604,331.244938 C327.453674,331.46537 327.453674,331.822259 327.673604,332.042691 C327.893533,332.263123 328.249837,332.263123 328.469767,332.042691 L328.469767,332.042691 L330.6347,329.873094 L334.121186,333.2696 L331.083906,336.693962 C330.367996,337.501001 329.340099,337.963665 328.263011,337.963665 L328.263011,337.963665 L327.115017,337.963665 C326.138768,337.963665 325.221702,337.581745 324.532785,336.888959 C323.843585,336.19577 323.465849,335.27569 323.469435,334.29707 L323.469435,334.29707 L323.49115,328.125385 L323.49115,328.125385 C323.489095,328.068057 323.47439,328.020418 323.460934,327.972779 C323.454327,327.949363 323.454609,327.924332 323.445383,327.902531 C323.435069,327.878308 323.414724,327.858929 323.400946,327.835917 C323.376491,327.795949 323.354373,327.754366 323.320975,327.721664 C323.318759,327.719646 323.318235,327.716819 323.31602,327.714397 L323.31602,327.714397 L321.937621,326.402304 L325.255826,322.981978 Z M316.663777,326.920681 C319.655612,326.920681 322.089666,329.359964 322.089666,332.357997 C322.089666,335.35603 319.655612,337.79491 316.663777,337.79491 C313.672183,337.79491 311.238129,335.35603 311.238129,332.357997 C311.238129,329.359964 313.672183,326.920681 316.663777,326.920681 Z M336.68549,314.831253 C337.772045,314.831253 338.655955,315.71742 338.655955,316.806256 L338.655955,316.806256 L338.655955,326.541184 C338.655955,327.583591 338.27564,328.586435 337.584305,329.365616 L337.584305,329.365616 L334.870132,332.425419 L331.431185,329.075341 L334.549846,325.950136 C334.655399,325.844361 334.715025,325.700636 334.715025,325.551259 L334.715025,325.551259 L334.715025,316.806256 C334.715025,315.71742 335.598934,314.831253 336.68549,314.831253 Z M367.329423,319.813979 C367.430142,319.519262 367.749622,319.361004 368.044527,319.462338 C368.338627,319.563268 368.495748,319.883822 368.395029,320.178539 L368.395029,320.178539 L368.266512,320.556018 C368.080786,321.101849 367.69322,321.542712 367.17633,321.796653 C366.659038,322.051401 366.073257,322.08814 365.53018,321.901621 L365.53018,321.901621 L365.153491,321.772833 C364.615249,321.588333 364.029468,321.877397 363.845757,322.415961 C363.660031,322.961792 363.272465,323.402252 362.755575,323.656192 C362.239492,323.909729 361.654516,323.947275 361.109425,323.76116 L361.109425,323.76116 L360.732736,323.631969 C360.197718,323.449084 359.609116,323.736129 359.425808,324.274693 L359.425808,324.274693 L359.29729,324.652172 C359.111565,325.198407 358.723998,325.638867 358.207109,325.893211 C357.906966,326.040569 357.584263,326.115258 357.259545,326.115258 C357.025072,326.115258 356.788986,326.076097 356.560959,325.998179 C356.26686,325.897248 356.109335,325.57629 356.210054,325.281574 C356.310773,324.986857 356.630253,324.82981 356.924756,324.930336 C357.184207,325.019559 357.463803,325.001391 357.711169,324.879871 C357.958132,324.758755 358.142649,324.548416 358.231684,324.287612 L358.231684,324.287612 L358.360604,323.910133 C358.744142,322.783347 359.972107,322.178169 361.096936,322.564531 L361.096936,322.564531 L361.473625,322.693318 C361.734688,322.782944 362.013478,322.763969 362.259635,322.643256 C362.506598,322.521736 362.691518,322.311397 362.780554,322.050997 C363.1653,320.923001 364.395279,320.320245 365.517288,320.704991 L365.517288,320.704991 L365.893977,320.834182 C366.153429,320.923001 366.433025,320.905237 366.68039,320.783717 C366.927353,320.662197 367.11187,320.452262 367.200906,320.191458 L367.200906,320.191458 Z M317.592405,317.620966 C318.627715,317.620966 319.62455,317.998848 320.40061,318.685578 L320.40061,318.685578 L324.410875,322.234287 L321.121153,325.62514 L317.075314,321.773237 C316.970566,321.673922 316.832017,321.618208 316.687989,321.618208 L316.687989,321.618208 L307.973869,321.611345 C307.445497,321.610941 306.948993,321.403832 306.575931,321.028775 C306.202908,320.653719 305.998368,320.155123 306.00001,319.625845 C306.003323,318.541046 306.886588,317.656089 307.968954,317.652859 L307.968954,317.652859 L317.578667,317.620966 L317.578667,317.620966 Z M341.636026,313.868378 C341.855996,313.647946 342.212138,313.647946 342.432108,313.868378 C342.652079,314.088809 342.652079,314.445699 342.432108,314.666131 C342.030844,315.068237 342.030844,315.723073 342.432108,316.125179 L342.432108,316.125179 L342.713719,316.40738 C343.554117,317.249542 343.554117,318.619772 342.713719,319.461934 L342.713719,319.461934 L342.432108,319.743731 C342.030844,320.146241 342.030844,320.800673 342.432108,321.202779 C343.27291,322.044941 343.27291,323.415171 342.432108,324.257333 L342.432108,324.257333 L342.150498,324.539534 C342.040513,324.64975 341.896687,324.70506 341.752457,324.70506 C341.608631,324.70506 341.464401,324.64975 341.354416,324.539534 C341.134446,324.319103 341.134446,323.962213 341.354416,323.741781 L341.354416,323.741781 L341.636026,323.45958 C342.03729,323.057474 342.03729,322.403042 341.636026,322.000532 C340.795224,321.15837 340.795224,319.78814 341.636026,318.945978 L341.636026,318.945978 L341.917636,318.664181 C342.3189,318.261671 342.3189,317.607239 341.917636,317.205133 L341.917636,317.205133 L341.636026,316.922932 C340.795224,316.080769 340.795224,314.71054 341.636026,313.868378 Z M309.262668,313.586177 C310.102503,312.74462 311.469903,312.74353 312.310866,313.586177 L312.310866,313.586177 L312.592355,313.868378 C312.9937,314.270484 313.646923,314.270484 314.048267,313.868378 C314.888424,313.026175 316.255784,313.02561 317.096465,313.868378 L317.096465,313.868378 L317.377954,314.150579 C317.779339,314.552685 318.432522,314.552685 318.833907,314.150579 L318.833907,314.150579 L319.115396,313.868378 C319.335326,313.647946 319.691629,313.647946 319.911559,313.868378 C320.131489,314.088809 320.131489,314.445699 319.911559,314.666131 L319.911559,314.666131 L319.630029,314.948332 C319.209709,315.369009 318.657689,315.579752 318.105951,315.579752 C317.553648,315.579752 317.00191,315.369413 316.581872,314.948332 L316.581872,314.948332 L316.300302,314.666131 C315.898998,314.264024 315.245815,314.264024 314.84443,314.666131 C314.003186,315.508697 312.635785,315.507889 311.796233,314.666131 L311.796233,314.666131 L311.514703,314.38393 C311.113318,313.981823 310.460176,313.981823 310.058791,314.38393 L310.058791,314.38393 L309.777261,314.666131 C308.936057,315.508293 307.568657,315.507889 306.729064,314.666131 C306.509134,314.445699 306.509134,314.088809 306.729064,313.868378 C306.948993,313.647946 307.305297,313.647946 307.525227,313.868378 C307.926612,314.270484 308.579794,314.270484 308.981139,313.868378 L308.981139,313.868378 Z M361.136418,307.965773 C361.236331,307.670693 361.55702,307.513404 361.851119,307.614253 C362.145219,307.715062 362.302743,308.035698 362.202024,308.330495 L362.202024,308.330495 L362.073507,308.707934 C361.887378,309.253926 361.499812,309.694709 360.982922,309.94869 C360.465227,310.203276 359.880252,310.239894 359.336772,310.053698 L359.336772,310.053698 L358.960083,309.924709 C358.421842,309.740168 357.836463,310.029151 357.652752,310.567715 C357.467026,311.113466 357.07946,311.553966 356.56257,311.80827 C356.046084,312.061968 355.461108,312.099151 354.91642,311.912914 L354.91642,311.912914 L354.539731,311.784006 C354.003504,311.60108 353.416514,311.887843 353.232803,312.42669 L353.232803,312.42669 L353.104285,312.804129 C352.918157,313.350121 352.53059,313.790863 352.013701,314.044804 C351.713558,314.192566 351.390855,314.26685 351.06654,314.26685 C350.831664,314.26685 350.595981,314.228093 350.367551,314.149771 C350.073452,314.049245 349.91633,313.728287 350.017049,313.43361 C350.117365,313.138854 350.437651,312.980716 350.73175,313.08209 C350.991202,313.171353 351.270395,313.153428 351.517761,313.031948 C351.764724,312.910428 351.949644,312.700251 352.038679,312.439366 L352.038679,312.439366 L352.167197,312.061968 C352.55154,310.935223 353.778296,310.330529 354.903528,310.716204 L354.903528,310.716204 L355.280217,310.845153 C355.540878,310.934375 355.82007,310.915925 356.06663,310.795293 C356.313593,310.673773 356.49811,310.463313 356.587146,310.202711 C356.972295,309.074876 358.201469,308.471272 359.324283,308.856947 L359.324283,308.856947 L359.700972,308.985855 C359.960021,309.075118 360.239617,309.057233 360.486982,308.935713 C360.733945,308.814233 360.918865,308.604056 361.007901,308.343172 L361.007901,308.343172 Z M321.243506,297.966974 C321.551102,297.931729 321.832913,298.149092 321.870542,298.458746 L321.870542,298.458746 L322.406931,302.86403 L323.315456,301.700627 C323.455697,301.520729 323.689083,301.443053 323.909818,301.504782 C324.129224,301.565905 324.290334,301.753555 324.31777,301.979962 L324.31777,301.979962 L324.991902,307.515866 C325.029531,307.825238 324.809883,308.10651 324.501159,308.144299 C324.478074,308.147004 324.454989,308.148376 324.432146,308.148376 C324.151745,308.148376 323.909012,307.938764 323.874123,307.652526 L323.874123,307.652526 L323.364687,303.468683 L322.456081,304.632086 C322.315639,304.811702 322.081165,304.889418 321.861759,304.827972 C321.642393,304.766808 321.481283,304.579199 321.453767,304.352752 L321.453767,304.352752 L320.752763,298.595325 C320.715094,298.285994 320.934783,298.004681 321.243506,297.966974 Z M355.612992,297.401966 C355.743927,297.119846 356.077105,296.996146 356.36073,297.128364 C356.642743,297.259775 356.764814,297.595348 356.633476,297.877994 L356.633476,297.877994 L354.765745,301.901761 L356.150831,301.395131 C356.362744,301.317415 356.604469,301.375026 356.758368,301.54362 C356.912266,301.711689 356.950137,301.956263 356.853849,302.16317 L356.853849,302.16317 L354.506696,307.22002 C354.411617,307.425514 354.208165,307.546186 353.995849,307.546186 C353.916886,307.546186 353.835908,307.529391 353.758958,307.493581 C353.476945,307.36217 353.354874,307.026597 353.486212,306.743952 L353.486212,306.743952 L355.260073,302.922408 L353.874987,303.429038 C353.663477,303.506472 353.421349,303.448861 353.26745,303.280549 C353.113552,303.112521 353.075681,302.867866 353.171566,302.660958 L353.171566,302.660958 Z M343.492074,290.683118 C343.623009,290.400756 343.956993,290.277863 344.239812,290.409557 C344.521825,290.540928 344.643896,290.876501 344.512558,291.159146 L344.512558,291.159146 L341.411624,297.841376 L344.141913,296.842409 C344.353825,296.765015 344.595551,296.822586 344.749449,296.990938 C344.903751,297.158966 344.941621,297.403621 344.845334,297.610488 L344.845334,297.610488 L341.311711,305.223013 C341.216632,305.428507 341.01318,305.549183 340.800865,305.549183 C340.721498,305.549462 340.640923,305.532344 340.563974,305.496574 C340.281961,305.365163 340.15989,305.02959 340.291227,304.746945 L340.291227,304.746945 L343.251558,298.369484 L340.520866,299.368371 C340.309356,299.446087 340.067228,299.388476 339.91333,299.219882 C339.759431,299.051853 339.721561,298.807198 339.817848,298.600291 L339.817848,298.600291 Z M333.252183,290.004059 C333.562397,289.967119 333.84159,290.18638 333.879058,290.495751 L333.879058,290.495751 L334.770219,297.811057 L336.561807,295.517356 C336.701202,295.337457 336.93769,295.259216 337.155646,295.32151 C337.37481,295.382634 337.53596,295.570243 337.563356,295.79669 L337.563356,295.79669 L338.578602,304.130705 C338.616473,304.440077 338.396503,304.721349 338.0879,304.759097 C338.064936,304.761883 338.041972,304.763255 338.019411,304.763255 C337.73901,304.763255 337.495673,304.553563 337.461025,304.267324 L337.461025,304.267324 L336.610555,297.285412 L334.819369,299.579113 C334.679169,299.758728 334.443084,299.83697 334.225531,299.774998 C334.005963,299.713835 333.845216,299.526225 333.817418,299.299778 L333.817418,299.299778 L332.761883,290.632411 C332.724013,290.323039 332.943983,290.041767 333.252183,290.004059 Z" transform="translate(-306 -290)"/>
</svg>
