<svg xmlns="http://www.w3.org/2000/svg" width="38" height="48" viewBox="0 0 38 48">
  <path fill="#F6AF00" d="M98.912052,184.275643 C102.105766,183.747044 106.560158,183.950521 109.448656,185.131577 L109.448656,185.131577 C113.498303,186.785938 117.008293,189.86022 118.518893,194.301341 C120.697431,200.741851 118.454754,206.695784 116.249675,210.499932 C114.360154,213.731497 113.623281,217.508657 114.159606,221.213473 L114.159606,221.213473 L115.712229,231.800946 L96.757843,232 L97.0188251,225.101665 C92.1309381,224.404975 88.5590205,225.751909 87.2452626,224.048889 C85.9381399,222.350293 86.886965,218.360362 86.161523,217.378361 C85.4427161,216.394149 85.1795221,216.582144 83.6755569,216.327797 C83.1159933,216.230482 82.7178849,215.989405 82.4303621,215.730635 C81.9992025,215.312714 81.8786401,214.668237 82.1295691,214.122719 C82.9611733,212.264879 85.9491985,206.536541 85.4803152,204.572539 C85.4320214,204.370545 85.3825986,204.167053 85.3326928,203.962158 L85.2324285,203.550527 C85.1486573,203.205991 85.0647407,202.857739 84.9836697,202.506221 L84.8879419,202.08286 C84.8722787,202.012048 84.8567772,201.941113 84.8414614,201.870057 L84.7519847,201.442315 C83.8254087,196.864994 83.8550976,191.82593 91.1135498,187.26588 C93.4906209,185.765008 96.1409115,184.748787 98.912052,184.275643 Z M99.2991019,189.933207 C97.6491635,190.161013 96.3354057,191.134167 95.7249727,192.405903 C95.433896,192.391407 95.1421,192.404738 94.8535575,192.445713 C93.4093085,192.644768 92.1751723,193.542723 91.6686899,194.761378 C91.5359871,195.071018 91.4740591,195.380657 91.4298249,195.705779 C91.4251619,195.745684 91.4162649,195.784979 91.4032843,195.823 C92.1862309,195.433739 93.305358,195.064382 94.6323862,195.194874 C94.6965258,195.201509 94.7429719,195.25459 94.7363367,195.309883 C94.7297016,195.367387 94.6699853,195.407198 94.6036339,195.400563 C91.8434153,195.128522 89.9546118,197.108006 89.9369182,197.132335 C89.9208113,197.145846 89.9019369,197.155661 89.8816253,197.161087 C89.6315861,197.394645 89.4143374,197.660998 89.2358049,197.95288 C88.7178326,198.813453 88.5270473,199.83176 88.6983585,200.821473 C89.1407013,203.331768 91.7881225,205.045846 94.610269,204.652161 C94.9309675,204.605715 95.2383957,204.400026 95.5657293,204.448683 C95.2811491,204.023606 95.1616007,203.509233 95.2295488,203.002223 C95.2406074,202.94693 95.3003237,202.904907 95.3666751,202.913754 C95.4286031,202.924813 95.4728373,202.97347 95.4617788,203.033187 C95.2737831,204.196548 96.432721,205.094504 96.4437796,205.103351 C96.4548382,205.114409 96.4658967,205.125468 96.4725319,205.143161 C96.6782213,205.306828 96.8883341,205.428472 97.1581631,205.525788 C98.5185501,206.024355 100.031124,205.88382 101.276374,205.143161 C101.283009,205.136526 101.287432,205.129891 101.294068,205.127679 C102.746058,204.106974 102.807816,202.544669 102.809231,202.314294 L102.809091,202.285627 L102.809091,202.285627 C102.804668,202.225911 102.857749,202.181677 102.919677,202.177253 C102.986029,202.177253 103.041321,202.221488 103.045745,202.276781 L103.045196,202.361521 C103.037002,202.691511 102.940965,203.895478 101.928829,204.884391 C102.868808,205.585504 104.129484,205.934955 105.441031,205.755806 C106.084698,205.646937 106.705343,205.430085 107.276753,205.114409 C107.873916,204.802558 108.48656,205.574446 108.791777,205.903991 C109.240755,206.383933 109.550395,207.009848 110.140922,207.385839 C110.988008,207.921074 111.678063,207.239866 111.627194,206.443649 C111.590463,205.987077 111.499892,205.536447 111.357365,205.101139 C111.291013,204.884391 111.191486,204.641102 111.268896,204.415508 C111.357365,204.14789 111.62277,204.150102 111.877117,204.054998 C112.364097,203.881424 112.807746,203.604521 113.177605,203.243299 C113.90747,202.528916 114.243651,201.54028 114.073349,200.589243 C114.007633,200.226186 113.875683,199.878318 113.684087,199.563008 C113.376427,199.731457 113.04436,199.850852 112.699875,199.916882 C112.622465,199.930152 112.545055,199.945634 112.456586,199.956693 C111.821824,200.045162 110.908387,200.023044 109.824647,199.543103 C109.769354,199.516562 109.742814,199.456846 109.771566,199.405976 C109.80253,199.352895 109.868881,199.33299 109.926386,199.355107 C112.015423,200.273705 113.439767,199.4641 113.629386,199.346675 L113.650912,199.33299 L113.650912,199.33299 C113.66197,199.324143 113.673029,199.319719 113.684087,199.317508 C114.736863,198.676111 115.345084,197.537078 115.134971,196.340541 C114.922647,195.135157 113.934011,194.208449 112.691028,193.896598 C112.352636,192.003371 110.351035,190.705095 108.216731,191.003676 C107.929209,191.043487 107.520041,191.242541 107.228095,191.145226 C106.98923,191.058969 106.860951,190.800199 106.661897,190.663072 C105.893431,190.157522 104.968039,189.946991 104.056498,190.070333 C103.580371,190.133896 103.121707,190.291797 102.707353,190.534793 L102.698506,190.539216 L102.621096,190.583451 L102.616672,190.581239 C102.300397,190.764811 101.145883,191.519005 101.27195,192.799588 C102.006239,192.675732 102.793609,192.821705 103.423948,193.261836 C103.919446,192.692219 104.649475,192.382263 105.403432,192.421385 C106.022711,192.443502 106.597757,192.68679 107.017982,193.093746 C107.438208,193.500701 107.657168,194.027089 107.626204,194.582229 C107.623992,194.630887 107.579758,194.672909 107.524465,194.679544 L107.504559,194.679544 C107.438208,194.679544 107.387339,194.630887 107.391762,194.57117 C107.447055,193.547147 106.546887,192.675732 105.392373,192.629286 C104.675598,192.589739 103.984889,192.903698 103.54338,193.469737 C103.510205,193.516183 103.435006,193.529453 103.379714,193.496277 L103.36202,193.485219 C102.344632,192.711119 100.807491,192.812858 99.9338637,193.717449 C99.8874818,193.758919 99.818515,193.762598 99.7679852,193.726296 C99.7193275,193.690908 99.7126924,193.624557 99.7569266,193.582534 C100.106377,193.219813 100.559779,192.972101 101.044144,192.852669 C100.900383,191.541123 101.964217,190.736059 102.404348,190.464018 C101.45005,189.967282 100.364216,189.781669 99.2991019,189.933207 Z M110.69385,196.977515 C110.751355,197.01069 110.769049,197.096947 110.738085,197.158875 C110.704909,197.223015 110.640769,197.247344 110.583265,197.209745 C109.989933,196.792043 109.235115,196.67661 108.544065,196.897893 C107.851799,197.119064 107.274541,197.641029 106.918455,198.373106 C106.560158,199.102972 106.465054,199.958905 106.648626,200.770604 C106.66632,200.845802 106.626509,200.918788 106.569005,200.936482 L106.560158,200.938694 C106.502653,200.947541 106.449572,200.909942 106.43409,200.84359 C106.227693,199.967887 106.329228,199.047815 106.721613,198.238191 C107.104239,197.441975 107.732366,196.875776 108.48656,196.634699 C109.238543,196.398046 110.023701,196.521902 110.69385,196.977515 Z M94.2696651,198.861895 C95.2538777,198.974692 96.0943289,199.417035 96.4835905,200.027468 C97.6557987,199.666959 99.0646603,199.972175 99.6817284,200.735216 C99.7104807,200.768392 99.6905752,200.812626 99.6419175,200.83032 L99.6065301,200.836955 C99.5622958,200.841378 99.5202733,200.828108 99.4959444,200.801568 C98.9164754,200.082761 97.5739653,199.808508 96.4835905,200.182288 L96.4747436,200.184499 L96.4526265,200.191135 C96.3995453,200.213252 96.3420408,200.19777 96.3110768,200.164594 C96.2980188,200.147279 96.2962892,200.123928 96.3066534,200.104878 C95.9505675,199.529832 95.1631974,199.105183 94.2364894,198.999021 C92.7435827,198.824296 91.3192392,199.48781 91.0604687,200.480869 C91.0494101,200.516257 90.9941173,200.540585 90.9321893,200.536162 C90.8791081,200.529527 90.8392973,200.491928 90.8503559,200.454329 C91.1290318,199.388283 92.6661728,198.673899 94.2696651,198.861895 Z" transform="translate(-82 -184)"/>
</svg>
