<svg xmlns="http://www.w3.org/2000/svg" width="32" height="48" viewBox="0 0 32 48">
  <path fill="#F6AF00" d="M330.445049,182.431508 C333.670355,184.694576 336.216909,187.767813 336.932617,190.260836 C337.194965,191.174629 336.668013,192.128451 335.755706,192.391226 C334.842969,192.654108 333.891126,192.126191 333.628671,191.212291 C332.747734,188.143574 325.882759,181.372877 318.802706,182.581618 C315.360067,183.169257 312.281082,185.181818 310.355267,188.103006 C308.642918,190.700515 308.038616,193.772245 308.697278,196.530303 C310.295428,203.221909 317.401479,215.448354 321.702495,221.341522 C323.141861,223.313623 325.604834,223.742542 327.429771,223.485578 C329.276947,223.225816 330.715239,222.272209 331.183317,220.996644 C331.510983,220.104157 332.498385,219.64683 333.389744,219.974706 C334.28078,220.302798 334.737578,221.292238 334.41002,222.184725 C333.490085,224.691306 331.059342,226.452284 327.907734,226.895514 C327.417236,226.964941 326.922485,227 326.427114,227 C323.395507,227 320.609595,225.67924 318.927112,223.373882 C314.344518,217.094838 307.078072,204.551493 305.353797,197.331754 C304.474579,193.650542 305.251952,189.595291 307.486418,186.205799 C309.934351,182.49252 313.848507,179.934503 318.225048,179.187392 C322.164987,178.51453 326.504894,179.666886 330.445049,182.431508 Z M323.629385,188.482426 C328.286,189.262141 332.420712,192.993068 333.24729,197.161198 C333.265553,197.253632 333.30627,197.416118 333.34559,197.573223 C333.619432,198.666288 333.929802,199.90516 332.946589,200.695958 C332.40825,201.128643 331.670197,201.195359 331.020237,200.869958 C329.805187,200.261552 328.741939,200.820674 328.216384,201.20838 C327.103717,202.028878 326.492217,203.413879 326.694833,204.654687 C326.943644,206.178823 328.403315,207.44309 330.804729,208.214627 C331.652256,208.486871 332.11883,209.395822 331.847029,210.244513 C331.627761,210.929319 330.994668,211.365878 330.313123,211.365878 C330.149935,211.365878 329.984168,211.340913 329.82055,211.288294 C324.946387,209.722299 323.777318,206.786261 323.514326,205.175394 C323.115111,202.731009 324.210804,200.1533 326.305609,198.608503 C327.432887,197.777137 328.713792,197.35715 329.986639,197.376304 C329.220008,194.66258 326.285627,192.200009 323.098029,191.666389 C319.875517,191.126529 317.04341,192.646683 315.124899,195.946538 C314.677018,196.716784 313.690368,196.977622 312.921374,196.529119 C312.152272,196.080508 311.891858,195.092359 312.33974,194.322006 C314.942588,189.845368 319.057641,187.716807 323.629385,188.482426 Z" transform="translate(-305 -179)"/>
</svg>
