<svg xmlns="http://www.w3.org/2000/svg" width="48" height="48" viewBox="0 0 48 48">
  <g fill="none">
    <polygon fill="#131415" points="19.325 42 8.523 42 8.523 24.57 2 24.57 23.709 5 45.418 24.57 38.895 24.57 38.895 42 28.092 42 28.092 28.953 19.325 28.953"/>
    <path fill="#E90511" d="M24,0 C10.74525,0 0,10.74525 0,24 C0,37.25475 10.74525,48 24,48 C37.25475,48 48,37.25475 48,24 C48,10.74525 37.25475,0 24,0 Z M24.0815362,43.3972603 C13.3239963,43.3972603 4.60273973,34.6760037 4.60273973,23.9184638 C4.60273973,19.3499368 6.1872649,15.1575004 8.82064836,11.8356164 L36.1643836,39.1793516 C32.8417504,41.8134843 28.6500632,43.3972603 24.0815362,43.3972603 Z M39.1792515,36.1643836 L11.8356164,8.82064836 C15.1575793,6.1872649 19.349366,4.60273973 23.9180014,4.60273973 C34.6757967,4.60273973 43.3972603,13.3239963 43.3972603,24.0815362 C43.3972603,28.6500632 41.8141959,32.8417504 39.1792515,36.1643836 Z"/>
  </g>
</svg>
