<svg xmlns="http://www.w3.org/2000/svg" width="56" height="48" viewBox="0 0 56 48">
  <path fill="#F6AF00" d="M629.236363,36 C630.679854,36 631.854545,37.1746909 631.854545,38.6181818 C631.854545,40.0616727 630.679854,41.2363636 629.236363,41.2363636 C628.833058,41.2363636 628.450736,41.144665 628.109155,40.9810254 L622.783,46.302 L622.861232,46.3827125 C623.995112,47.5818558 624.871868,48.9382319 625.491501,50.3805118 C625.514243,50.4242453 625.5344,50.4705345 625.550519,50.5188689 C626.014452,51.6335182 626.326379,52.7973171 626.485986,53.9781303 C626.491795,53.9977398 626.49599,54.0179213 626.499491,54.0383999 C626.507426,54.0848182 626.511549,54.1310196 626.512085,54.1766795 C626.653517,55.3557878 626.644207,56.5503027 626.483404,57.7276723 L626.475927,57.6139636 C626.490108,57.7288271 626.481183,57.8441549 626.450913,57.9535783 L626.398822,58.2675187 C626.197167,59.4073932 625.852052,60.5263515 625.363477,61.594667 C625.346223,61.6421719 625.325175,61.6879791 625.300243,61.7317669 C624.709135,62.9866172 623.91861,64.1695144 622.928423,65.2313511 C622.882484,65.294927 622.828168,65.3521823 622.767135,65.401358 C622.718456,65.4518651 622.669134,65.5022249 622.619345,65.5522908 L619.830405,68.3595955 C619.803729,68.3909778 619.774902,68.4203858 619.744178,68.4476147 L614.216694,74.0113096 C614.189731,74.0423957 614.160632,74.0715003 614.129648,74.0984154 L604.546036,83.7425453 C604.382376,83.9074572 604.15961,84 603.927273,84 C603.694935,84 603.47217,83.9074572 603.308509,83.7425453 L598.033539,78.4343042 C598.022698,78.4243844 598.012103,78.4141891 598.001767,78.4037275 L585.2352,65.5531635 C582.876604,63.1810325 581.563137,60.1495054 581.294799,57.0428068 C581.286538,57.0005617 581.281649,56.9573097 581.280014,56.9131947 L581.280585,56.8649558 C581.192899,55.6715848 581.259163,54.4687822 581.479378,53.2895772 C581.484693,53.2276635 581.496177,53.1671317 581.513586,53.1090119 C582.012408,50.6243524 583.197424,48.251721 585.069238,46.3030808 L579.746398,40.9805425 C579.404561,41.1444846 579.021883,41.2363636 578.618182,41.2363636 C577.174691,41.2363636 576,40.0616727 576,38.6181818 C576,37.1746909 577.174691,36 578.618182,36 C580.061673,36 581.236364,37.1746909 581.236364,38.6181818 C581.236364,39.0218834 581.144485,39.4045606 580.980542,39.7463976 L586.355407,45.1179225 C588.758014,43.1735589 591.768981,42.1010988 594.890182,42.108177 C598.2236,42.1002371 601.442285,43.3249224 603.927273,45.5467636 C606.41213,43.3247073 609.6309,42.0999894 612.964364,42.108177 C613.467536,42.108177 613.966524,42.1353745 614.459677,42.1890776 C614.580154,42.179172 614.695897,42.1916338 614.805515,42.2259272 L614.828422,42.234314 C617.275737,42.5684209 619.567276,43.559049 621.497482,45.1200717 L626.874003,39.7463976 C626.710061,39.4045606 626.618182,39.0218834 626.618182,38.6181818 C626.618182,37.1746909 627.792873,36 629.236363,36 Z M602.771293,80.7261225 L603.927273,81.8888726 L607.795318,77.9978164 C606.172762,78.9972471 604.495668,79.9081748 602.771293,80.7261225 Z M609.517007,72.616051 L609.965673,72.2801453 C606.930308,74.5933843 603.635504,76.5420228 600.149165,78.087099 L601.463,79.408 L601.690266,79.3056181 C605.096128,77.7214507 608.31423,75.7628492 611.28517,73.4664646 C610.683913,73.2003992 610.094751,72.9167726 609.517007,72.616051 Z M606.259035,70.6590323 L606.768873,70.2999272 C603.888713,72.3643625 600.777349,74.0825106 597.499188,75.420033 L598.827,76.756 L599.045995,76.6648511 C602.149468,75.3236582 605.098895,73.6520367 607.843305,71.6792348 C607.3035,71.3535816 606.775366,71.0136712 606.259035,70.6590323 Z M603.359002,68.4060636 L603.920291,68.0308362 C601.087336,69.9624372 598.028164,71.5357628 594.81278,72.7162725 L596.161,74.073 L596.353529,73.9992756 C599.311575,72.833406 602.132664,71.3472737 604.766468,69.567711 C604.28454,69.1928469 603.815686,68.8057984 603.359002,68.4060636 Z M594.890182,43.8545454 C594.706765,43.8541602 594.523785,43.8580494 594.341375,43.8661576 C594.331659,44.1527387 594.327273,44.4395184 594.327273,44.7272727 C594.327273,49.6572027 595.560396,54.3943928 597.776512,58.5815681 C597.78811,58.5988242 597.797424,58.6174009 597.806072,58.6363091 C599.383476,61.6027171 601.455171,64.2914798 603.931521,66.575353 C604.003025,66.6218373 604.066076,66.6793649 604.119557,66.744438 C604.942202,67.4931358 605.809793,68.1955785 606.717993,68.8490122 L606.620418,68.7960349 C606.693138,68.8289648 606.759945,68.8711895 606.819611,68.9209989 C608.794914,70.3303893 610.960766,71.5079874 613.284267,72.4077663 C613.293048,72.4098184 613.301069,72.4128879 613.30904,72.416074 C613.315672,72.4199085 613.323025,72.4227452 613.33038,72.4255791 L614.683192,71.0632812 C603.65616,67.1570005 596.072727,56.5297217 596.072727,44.7272727 C596.072727,44.4549818 596.076654,44.1835636 596.0844,43.9132363 C595.690297,43.8732428 595.291284,43.8536735 594.890182,43.8545454 Z M600.804042,65.8996976 L600.244173,66.2466329 C597.678178,67.8028424 594.93768,69.0510289 592.079533,69.9653675 L593.451,71.345 L593.652264,71.2772134 C596.598696,70.2448288 599.413602,68.8707169 602.039439,67.1832616 C601.61464,66.7657202 601.203051,66.3381796 600.804042,65.8996976 Z M597.818182,44.7272727 C597.818182,56.0717811 605.291377,66.2588164 616.055177,69.6829582 L617.453705,68.2764546 C607.024023,65.381719 599.601184,55.7615542 599.563778,44.8104325 C599.052609,44.5899758 598.524514,44.4064257 597.984871,44.2609251 L597.82277,44.2199694 C597.819629,44.3890444 597.818099,44.5581532 597.818182,44.7272727 Z M598.582878,63.1679634 L598.150118,63.4308268 C595.379398,65.0765696 592.392649,66.327012 589.276706,67.146164 L590.687,68.564 L590.878003,68.5091644 C593.964906,67.5872099 596.915441,66.2597056 599.652394,64.5617196 C599.282707,64.1060717 598.926225,63.6417556 598.582878,63.1679634 Z M601.333236,45.7539176 L601.335951,45.828439 C601.827871,55.899641 609.027521,64.5678243 618.881552,66.8384839 L620.353836,65.3566776 C611.331401,63.7759698 604.314777,56.4533806 603.206261,47.2637855 L603.308509,47.3637818 C602.705352,46.7525098 602.042381,46.2139932 601.333236,45.7539176 Z M596.692539,60.2317359 L596.462486,60.372839 C593.352136,62.237603 589.939634,63.5421454 586.380569,64.2280659 C586.410579,64.2597656 586.441548,64.2912578 586.472727,64.3226181 L587.841,65.7 L588.026832,65.6585931 C591.405358,64.861135 594.635907,63.5337035 597.598486,61.7260227 C597.281715,61.2357414 596.980223,60.737827 596.692539,60.2317359 Z M606.573412,45.7211274 L606.425653,45.8160647 C605.89934,46.1649306 605.399125,46.557394 604.930689,46.9910864 C605.971219,55.8509615 612.997945,62.8294288 621.863563,63.8092613 C622.32501,63.2873534 622.733167,62.7347234 623.088189,62.1581288 C614.214673,61.6988844 607.073263,54.5830143 606.573412,45.7211274 Z M595.131023,57.0914741 L595.103835,57.1089115 C591.774939,59.1774051 588.047693,60.5212684 584.165571,61.0532415 C584.43245,61.6141084 584.746583,62.1581495 585.106578,62.6796153 L584.588509,62.7578181 C588.592104,62.1935172 592.432923,60.8076504 595.870905,58.6903193 C595.609668,58.1635751 595.362941,57.6310582 595.131023,57.0914741 Z M610.045558,44.2151962 L609.869501,44.2600525 C609.330535,44.4053976 608.803094,44.5887077 608.29113,44.8083354 L608.290909,44.7272727 C608.290909,53.3770568 615.318613,60.4167786 623.963907,60.4363228 C624.199337,59.8639141 624.388657,59.2761607 624.532007,58.6793995 C624.353622,58.6875145 624.176604,58.690909 624,58.690909 C616.3008,58.690909 610.036364,52.4264727 610.036364,44.7272727 C610.036364,44.5568246 610.039436,44.3859825 610.045558,44.2151962 Z M593.906717,53.7279342 L593.71086,53.8584914 C590.530414,55.936277 586.904715,57.2418707 583.124316,57.6669092 C583.212013,58.2435931 583.341248,58.8151916 583.512266,59.3765478 C587.416983,58.9066244 591.165116,57.5610827 594.477403,55.4407998 C594.270192,54.8762626 594.080302,54.3051401 593.906717,53.7279342 Z M612.964364,43.8536435 C612.577314,43.8527858 612.19221,43.8709674 611.810301,43.9076674 C611.79062,44.1817347 611.781733,44.4544377 611.781818,44.7272727 C611.781818,51.4647272 617.262545,56.9454545 624,56.9454545 C624.273042,56.9454545 624.547114,56.9364428 624.819838,56.9184196 C624.871485,56.3340434 624.880936,55.7481939 624.848272,55.1642942 C624.566054,55.1885749 624.282833,55.1999999 624,55.1999999 C618.225163,55.1999999 613.527273,50.502109 613.527273,44.7272727 C613.527273,44.4411697 613.539093,44.1542787 613.562452,43.8686589 C613.36465,43.857877 613.164767,43.853208 612.964364,43.8536435 Z M593.04057,50.060842 L592.791282,50.2493241 C589.953334,52.3494221 586.620573,53.6958269 583.106359,54.151584 C583.023091,54.7379616 582.983683,55.3307048 582.987529,55.9232018 C586.744542,55.4919642 590.333853,54.1230573 593.42601,51.9415415 C593.278844,51.3195501 593.150136,50.6928359 593.04057,50.060842 Z M615.298708,44.0818927 L615.280891,44.3506462 C615.275506,44.476074 615.272782,44.6016444 615.272727,44.7272727 C615.272727,49.5394909 619.187782,53.4545454 624,53.4545454 C624.208979,53.4545454 624.417807,53.4471291 624.625664,53.4323595 C624.507013,52.8466749 624.345296,52.2701846 624.140182,51.7061871 L624,51.7090909 L624,51.7090909 C620.1504,51.7090909 617.018182,48.5768727 617.018182,44.7272727 L617.021165,44.5644164 C616.461308,44.3606344 615.885545,44.1991217 615.298708,44.0818927 Z M592.601397,45.8337748 L592.347786,46.0796239 C590.105465,48.1997637 587.325118,49.6984897 584.282846,50.3961919 C583.96541,51.020881 583.707343,51.6676371 583.507117,52.3284695 C586.918067,51.7701637 590.118276,50.2922132 592.759628,48.0474454 C592.68045,47.3156954 592.627718,46.5771009 592.601397,45.8337748 Z M618.807856,45.3895427 L618.809947,45.4136471 C618.959948,46.5406557 619.474506,47.601424 620.29416,48.4234137 C621.118161,49.2497641 622.184359,49.7684613 623.317625,49.9185947 C622.801345,49.003539 622.15608,48.1429872 621.381818,47.3637818 C621.242355,47.2223697 621.099691,47.0848501 620.953994,46.9512934 C620.938714,46.9407278 620.925675,46.9280155 620.913028,46.9148869 C620.265983,46.3262835 619.559171,45.8159379 618.807856,45.3895427 Z M591.665235,44.2986335 L591.463913,44.3558132 C589.794146,44.8589769 588.244976,45.7298591 586.937113,46.9181352 C586.924771,46.932083 586.911328,46.9450099 586.8975,46.9574818 C586.75183,47.0879046 586.610713,47.2239393 586.472727,47.3637818 C586.224253,47.6138425 585.989064,47.8722809 585.76716,48.1382007 C587.999813,47.3227604 590.016712,46.0091726 591.665235,44.2986335 Z M578.618182,37.7454545 C578.151354,37.7663369 577.783621,38.1508871 577.783621,38.6181818 C577.783621,39.0854765 578.151354,39.4700267 578.618182,39.4909091 C579.08501,39.4700267 579.452742,39.0854765 579.452742,38.6181818 C579.452742,38.1508871 579.08501,37.7663369 578.618182,37.7454545 Z M629.236363,37.7454545 C628.769536,37.7663369 628.401803,38.1508871 628.401803,38.6181818 C628.401803,39.0854765 628.769536,39.4700267 629.236363,39.4909091 C629.703191,39.4700267 630.070924,39.0854765 630.070924,38.6181818 C630.070924,38.1508871 629.703191,37.7663369 629.236363,37.7454545 Z" transform="translate(-576 -36)"/>
</svg>
