<svg xmlns="http://www.w3.org/2000/svg" width="32" height="48" viewBox="0 0 32 48">
  <path fill="#F6AF00" d="M432.707141,202.97056 C432.892513,203.381982 433.101056,203.793403 433.263256,204.227681 C434.667854,207.97435 437.400728,211.092334 440.956176,213.00467 C443.393782,214.510898 446.489546,214.510898 448.927152,213.00467 C452.334088,211.208937 454.991812,208.287925 456.4347,204.753386 C456.666415,204.204824 456.921301,203.656263 457.129844,203.130557 C457.268276,203.112593 457.408497,203.112593 457.54693,203.130557 C461.347046,205.00481 461.949504,204.113397 459.655531,208.616176 C458.044329,211.584218 456.12635,214.379986 453.932184,216.958887 C451.482653,219.393942 450.735776,223.032688 452.032126,226.215868 C454.604156,232.912894 456.805443,239.74706 459.145759,246.535513 C459.283728,246.894044 459.399793,247.260409 459.493331,247.632636 L459.145759,247.792634 C457.431072,247.792634 455.368814,248.364052 454.140727,247.60978 C452.912641,246.855507 452.657755,244.7984 451.962612,243.289855 C450.525982,240.387049 449.182038,237.484243 447.907609,234.467152 C447.799863,234.189816 447.66807,233.922162 447.513694,233.667166 C445.68315,231.015784 444.756292,231.038641 442.879405,233.667166 C440.410711,237.706236 438.376053,241.988399 436.808487,246.444086 C436.600728,247.33395 435.729981,247.913223 434.815743,247.769777 L430.297311,247.769777 C431.548569,244.409836 432.614456,241.324175 433.796199,238.238515 C434.421828,236.501402 435.024286,234.76429 435.603572,233.004321 C436.460915,230.467222 437.202402,227.88441 438.175602,225.393025 C439.185958,222.817199 438.639226,219.899637 436.762144,217.8503 C434.445,214.878923 432.498598,211.770406 430.389997,208.707603 C430.314777,208.609073 430.252493,208.501556 430.204625,208.387608 C428.374081,204.273395 428.211881,204.753386 432.707141,202.97056 Z M444.99578,200.000575 C447.846063,200.042385 450.12361,202.353173 450.085725,205.164808 C450.073673,206.52266 449.510387,207.819095 448.521861,208.764126 C447.533335,209.709157 446.202057,210.223927 444.825807,210.193291 C441.975671,210.142605 439.705531,207.824736 439.752416,205.013233 C439.7993,202.20173 442.145496,199.958766 444.99578,200.000575 Z" transform="translate(-429 -200)"/>
</svg>
